<svg width="501" height="440" viewBox="0 0 501 440" fill="none" xmlns="http://www.w3.org/2000/svg">

  <!-- Horizontal axis (green) — centred vertically at y=220 -->
  <path d="M0 220 L5 222.887 V217.113 L0 220 Z M500 220 L495 217.113 V222.887 L500 220 Z M4.5 220 V220.5 H495.5 V220 V219.5 H4.5 V220 Z" fill="#009C0A"/>

  <!-- Vertical axis (pink) — elongated, y=10 to y=430 -->
  <path d="M250 430 L252.887 425 H247.113 L250 430 Z M250 10 L247.113 15 H252.887 L250 10 Z M250 425.5 H250.5 V14.5 H250 H249.5 V425.5 H250 Z" fill="#E700F7"/>

  <!-- Axis endpoint labels -->
  <!-- Unpredictable (green, left) -->
  <text x="2" y="213" font-family="'Linux Libertine Mono O', 'Fragment Mono', monospace" font-size="11" fill="#009C0A" letter-spacing="1.1">Unpredictable</text>
  <!-- Predictable (green, right) -->
  <text x="499" y="213" font-family="'Linux Libertine Mono O', 'Fragment Mono', monospace" font-size="11" fill="#009C0A" letter-spacing="1.1" text-anchor="end">Predictable</text>
  <!-- Specific (pink, top) -->
  <text x="250" y="7" font-family="'Linux Libertine Mono O', 'Fragment Mono', monospace" font-size="11" fill="#E700F7" letter-spacing="1.1" text-anchor="middle">Specific</text>
  <!-- Vague (pink, bottom) -->
  <text x="250" y="440" font-family="'Linux Libertine Mono O', 'Fragment Mono', monospace" font-size="11" fill="#E700F7" letter-spacing="1.1" text-anchor="middle">Vague</text>

  <!-- Corner labels (black) -->
  <text x="5" y="25" font-family="'Linux Libertine Mono O', 'Fragment Mono', monospace" font-size="11" fill="black" letter-spacing="1.1">↖ ITERATE</text>
  <text x="496" y="25" font-family="'Linux Libertine Mono O', 'Fragment Mono', monospace" font-size="11" fill="black" letter-spacing="1.1" text-anchor="end">OPTIMIZE ↗</text>
  <text x="5" y="428" font-family="'Linux Libertine Mono O', 'Fragment Mono', monospace" font-size="11" fill="black" letter-spacing="1.1">↙ EXPLORE</text>
  <text x="496" y="428" font-family="'Linux Libertine Mono O', 'Fragment Mono', monospace" font-size="11" fill="black" letter-spacing="1.1" text-anchor="end">CALIBRATE ↘</text>

</svg>
