<svg width="501" height="258" viewBox="0 0 501 258" fill="none" xmlns="http://www.w3.org/2000/svg">
<path d="M0 127.732L5 130.619V124.846L0 127.732ZM500 127.732L495 124.846V130.619L500 127.732ZM4.5 127.732V128.232H495.5V127.732V127.232H4.5V127.732Z" fill="#009C0A"/>
<path d="M250 237.755L252.887 232.755H247.113L250 237.755ZM250 17.7549L247.113 22.7549H252.887L250 17.7549ZM250 233.255H250.5V22.2549H250H249.5V233.255H250Z" fill="#E700F7"/>
<path d="M1.903 113.809V116.416C1.903 117.098 1.936 117.89 2.376 118.363C2.673 118.682 3.102 118.891 3.608 118.891C5.39 118.891 5.511 117.505 5.511 116.339V113.809C5.511 112.962 5.335 112.918 4.543 112.852C4.477 112.786 4.477 112.533 4.543 112.467C5.027 112.478 5.577 112.489 5.808 112.489C6.061 112.489 6.49 112.478 6.886 112.467C6.952 112.533 6.952 112.786 6.886 112.852C6.248 112.907 6.094 112.94 6.094 113.809V116.152C6.094 118.011 5.555 119.342 3.388 119.342C2.442 119.342 0.88 118.902 0.88 116.768V113.809C0.88 112.94 0.748 112.885 0.11 112.852C0.044 112.786 0.044 112.533 0.11 112.467C0.506 112.478 0.924 112.489 1.364 112.489C1.859 112.489 2.343 112.478 2.783 112.467C2.849 112.533 2.849 112.786 2.783 112.852C1.969 112.885 1.903 112.94 1.903 113.809ZM10.4681 114.953C11.1391 114.205 11.8431 113.842 12.7231 113.842C13.1081 113.842 13.4271 113.996 13.6361 114.216C13.9221 114.535 13.9661 115.085 13.9661 115.69V117.846C13.9661 118.748 14.0871 118.803 14.8131 118.847C14.8681 118.913 14.8681 119.188 14.8131 119.254C14.3401 119.243 13.9331 119.232 13.4821 119.232C13.0421 119.232 12.7891 119.243 12.3271 119.254C12.2721 119.188 12.2721 118.913 12.3271 118.847C12.8991 118.792 13.0091 118.748 13.0091 117.846V115.657C13.0091 115.327 12.9761 115.019 12.8441 114.81C12.6901 114.579 12.4811 114.414 12.2611 114.414C11.5901 114.414 10.9741 114.876 10.5561 115.283C10.4681 115.382 10.3691 115.514 10.3691 115.745V117.846C10.3691 118.748 10.4681 118.792 11.0291 118.847C11.0951 118.913 11.0951 119.188 11.0291 119.254C10.5671 119.243 10.3141 119.232 9.88513 119.232C9.41213 119.232 8.98313 119.243 8.53213 119.254C8.46613 119.188 8.46613 118.913 8.53213 118.847C9.30213 118.781 9.41213 118.748 9.41213 117.846V115.184C9.41213 114.546 9.29113 114.491 8.69713 114.436C8.67513 114.37 8.65313 114.194 8.67513 114.128C9.43413 114.029 9.84113 113.93 10.1491 113.809C10.2371 113.809 10.2481 113.853 10.2811 113.897C10.3251 114.018 10.3691 114.282 10.3691 114.953C10.3691 115.107 10.4351 114.997 10.4681 114.953ZM18.6923 115.25C18.5493 115.437 18.4173 115.69 18.4173 115.943V117.681C18.5053 118.319 19.3083 118.88 19.8253 118.88C20.9253 118.88 21.5963 118.066 21.5963 116.669C21.5963 115.283 21.1673 114.403 19.9683 114.403C19.4733 114.403 19.0003 114.821 18.6923 115.25ZM18.4173 114.821C18.4173 114.909 18.4723 114.909 18.5163 114.865C18.9893 114.249 19.4953 113.842 20.3423 113.842C21.8603 113.842 22.6523 114.843 22.6523 116.339C22.6523 117.329 22.3003 118.099 21.7283 118.66C21.2223 119.133 20.5843 119.342 19.9023 119.342C19.2533 119.342 18.7693 119.089 18.4173 118.704V120.398C18.4173 121.311 18.5383 121.355 19.5393 121.399C19.6053 121.465 19.6053 121.74 19.5393 121.806C19.0663 121.795 18.5603 121.784 17.9443 121.784C17.3943 121.784 17.0203 121.795 16.5583 121.806C16.4923 121.74 16.4923 121.465 16.5583 121.399C17.2293 121.366 17.4603 121.311 17.4603 120.398V115.338C17.4603 114.623 17.2183 114.568 16.5583 114.502C16.5363 114.425 16.5033 114.238 16.5253 114.161C17.3723 114.051 17.8673 113.93 18.2083 113.798C18.3073 113.798 18.3293 113.842 18.3513 113.897C18.4063 114.029 18.4173 114.458 18.4173 114.821ZM27.7194 114.766C27.7194 115.129 27.7304 115.228 27.8294 115.118C28.5664 114.348 29.1164 113.842 30.4474 113.842C30.9424 113.842 31.0744 114.183 31.0744 114.403C31.0744 114.7 30.8434 115.008 30.5574 115.008C30.3374 115.008 30.1724 114.843 30.0514 114.711C29.9744 114.623 29.7214 114.491 29.5674 114.491C29.1384 114.491 28.5994 114.942 27.9834 115.624C27.8184 115.811 27.7194 116.042 27.7194 116.328V117.846C27.7194 118.385 27.7634 118.583 27.9614 118.693C28.0934 118.759 29.2594 118.836 29.6444 118.847C29.7104 118.913 29.7104 119.188 29.6444 119.254C29.1714 119.243 27.8294 119.232 27.3784 119.232C26.9384 119.232 25.5634 119.243 25.1014 119.254C25.0354 119.188 25.0354 118.913 25.1014 118.847C25.5524 118.825 26.4434 118.77 26.5534 118.693C26.7074 118.583 26.7624 118.374 26.7624 117.846V115.184C26.7624 114.821 26.7294 114.678 26.5864 114.59C26.4764 114.524 25.6734 114.436 25.4204 114.436C25.3984 114.37 25.3764 114.194 25.3984 114.128C26.1574 114.029 27.0154 113.897 27.4994 113.809C27.5874 113.809 27.6094 113.842 27.6314 113.897C27.6864 114.007 27.7194 114.172 27.7194 114.766ZM34.5135 115.976L37.5275 115.932C37.6815 115.932 37.7475 115.756 37.7475 115.646C37.7475 114.59 36.8675 114.282 36.3395 114.282C35.6355 114.282 34.7665 114.656 34.5135 115.976ZM38.6055 118.033C38.7705 118.044 38.8255 118.154 38.8585 118.275C38.3085 118.913 37.3955 119.342 36.3615 119.342C35.3935 119.342 34.5465 119.056 34.0845 118.561C33.6335 118.099 33.4025 117.428 33.4025 116.746C33.4025 114.887 34.8435 113.842 36.3615 113.842C38.2315 113.842 38.8475 115.074 38.8475 116.108C38.8475 116.24 38.7375 116.427 38.5835 116.427H34.4585C34.4585 117.153 34.5905 117.494 34.8655 117.912C35.3165 118.55 35.9765 118.792 36.6915 118.792C37.5165 118.792 38.0885 118.506 38.6055 118.033ZM45.5427 117.714V115.382C45.5427 114.997 45.5097 114.92 45.3337 114.722C45.0917 114.436 44.5087 114.293 44.0467 114.293C43.7937 114.293 43.1117 114.326 42.7047 114.898C42.5067 115.151 42.3307 115.646 42.3307 116.526C42.3307 118.055 43.2877 118.781 43.9917 118.781C44.3217 118.781 44.8937 118.583 45.3447 118.187C45.5207 118.033 45.5427 117.945 45.5427 117.714ZM45.4107 118.616C44.8057 119.111 44.1567 119.353 43.6507 119.353C42.2537 119.353 41.3407 118.253 41.3407 116.746C41.3407 115.833 41.6707 115.107 42.2317 114.579C42.7597 114.117 43.3207 113.853 44.1787 113.853C44.6077 113.853 45.3887 114.051 45.4327 114.051C45.5207 114.051 45.5427 114.029 45.5427 113.941V113.083C45.5427 112.269 45.4107 112.214 44.6187 112.181C44.5527 112.115 44.5307 111.939 44.5527 111.851C44.9927 111.818 46.1257 111.664 46.4007 111.554C46.4997 111.554 46.5437 111.587 46.5437 111.664C46.5437 111.664 46.4997 112.104 46.4997 112.819V117.802C46.4997 118.341 46.5877 118.506 47.4127 118.605C47.4787 118.671 47.4787 118.836 47.4127 118.902C46.5877 118.968 46.1257 119.144 45.8837 119.342C45.7957 119.364 45.7627 119.375 45.6747 119.342C45.6747 119.342 45.5537 118.924 45.5537 118.627C45.5537 118.539 45.4657 118.572 45.4107 118.616ZM51.8308 112.082C51.8308 111.774 52.1718 111.477 52.4688 111.477C52.7988 111.477 53.0628 111.829 53.0628 112.137C53.0628 112.401 52.7658 112.742 52.4248 112.742C52.1278 112.742 51.8308 112.412 51.8308 112.082ZM52.9968 117.758C52.9968 118.286 53.0298 118.495 53.1948 118.605C53.3158 118.693 54.4268 118.825 55.0208 118.847C55.0868 118.913 55.0868 119.188 55.0208 119.254C54.5478 119.243 52.9968 119.232 52.5348 119.232C52.0398 119.232 50.3678 119.243 49.9058 119.254C49.8398 119.188 49.8398 118.913 49.9058 118.847C50.4448 118.825 51.7208 118.693 51.8418 118.605C51.9958 118.484 52.0398 118.275 52.0398 117.758V115.228C52.0398 114.942 52.0178 114.799 51.9188 114.667C51.8198 114.546 51.4238 114.524 50.3788 114.502C50.3348 114.414 50.3238 114.238 50.3568 114.139C50.8298 114.117 51.7648 114.029 52.2708 113.941C52.5678 113.886 52.8648 113.809 52.9968 113.809C53.0628 113.809 53.1508 113.886 53.1508 113.952C53.1508 114.216 52.9968 114.403 52.9968 115.14V117.758ZM63.3219 118.044C62.3319 119.166 61.4079 119.342 60.6269 119.342C58.8119 119.342 57.7889 118.154 57.7889 116.669C57.7889 115.03 59.0869 113.842 60.6379 113.842C61.4409 113.842 62.2549 114.106 62.7279 114.491C62.9699 114.7 63.1129 114.964 63.1129 115.195C63.1129 115.613 62.9259 115.822 62.5959 115.822C62.3319 115.822 62.0899 115.624 62.0459 115.294C61.9689 114.733 61.3419 114.293 60.5719 114.293C59.4499 114.293 58.7899 115.118 58.7899 116.405C58.7899 117.736 59.6699 118.748 60.9019 118.748C61.4629 118.748 62.3099 118.484 63.0029 117.769C63.1239 117.78 63.2779 117.934 63.3219 118.044ZM66.0681 114.392H67.1571C67.1571 113.171 67.1241 112.698 67.1241 112.566C67.1241 112.456 67.3991 112.434 67.5861 112.357C67.7511 112.291 67.9931 112.17 68.0701 112.17C68.1251 112.17 68.1581 112.192 68.1581 112.258C68.1581 112.258 68.1141 112.698 68.1141 113.413V114.392H70.5341C70.5891 114.392 70.6221 114.414 70.6221 114.458V114.733C70.6221 114.832 70.4681 114.876 70.3581 114.876H68.1141V117.175C68.1141 118.473 68.6751 118.693 69.2361 118.693C69.7091 118.693 70.3251 118.451 70.9301 118.198C71.0401 118.209 71.1061 118.396 71.1281 118.506C70.2371 119.001 69.4891 119.342 68.8511 119.342C67.8831 119.342 67.1571 118.935 67.1571 117.703V114.876H65.9251C65.8811 114.876 65.8701 114.865 65.8701 114.81V114.612C65.8701 114.524 65.9141 114.392 66.0681 114.392ZM76.2392 112.082C76.2392 111.774 76.5802 111.477 76.8772 111.477C77.2072 111.477 77.4712 111.829 77.4712 112.137C77.4712 112.401 77.1742 112.742 76.8332 112.742C76.5362 112.742 76.2392 112.412 76.2392 112.082ZM77.4052 117.758C77.4052 118.286 77.4382 118.495 77.6032 118.605C77.7242 118.693 78.8352 118.825 79.4292 118.847C79.4952 118.913 79.4952 119.188 79.4292 119.254C78.9562 119.243 77.4052 119.232 76.9432 119.232C76.4482 119.232 74.7762 119.243 74.3142 119.254C74.2482 119.188 74.2482 118.913 74.3142 118.847C74.8532 118.825 76.1292 118.693 76.2502 118.605C76.4042 118.484 76.4482 118.275 76.4482 117.758V115.228C76.4482 114.942 76.4262 114.799 76.3272 114.667C76.2282 114.546 75.8322 114.524 74.7872 114.502C74.7432 114.414 74.7322 114.238 74.7652 114.139C75.2382 114.117 76.1732 114.029 76.6792 113.941C76.9762 113.886 77.2732 113.809 77.4052 113.809C77.4712 113.809 77.5592 113.886 77.5592 113.952C77.5592 114.216 77.4052 114.403 77.4052 115.14V117.758ZM83.8253 114.766C83.6493 114.887 83.4513 115.03 83.4513 115.283V118.451C83.6713 118.726 84.4743 118.902 84.8923 118.902C86.1793 118.902 86.6743 117.868 86.6743 116.471C86.6743 115.283 85.8053 114.348 84.9803 114.348C84.4523 114.348 84.1663 114.535 83.8253 114.766ZM83.6273 114.392C84.0673 114.062 84.5403 113.842 85.2443 113.842C86.4213 113.842 87.7303 114.755 87.7303 116.251C87.7303 118.198 86.3553 119.342 84.9803 119.342C84.5073 119.342 83.7373 119.243 83.3963 119.034C83.1213 118.869 83.0553 118.88 82.8463 119.1C82.7033 119.254 82.5713 119.342 82.4723 119.408C82.3623 119.408 82.2963 119.32 82.2413 119.232C82.4063 119.012 82.4943 118.737 82.4943 118.121V113.083C82.4943 112.225 82.3513 112.214 81.5703 112.181C81.5043 112.115 81.4823 111.939 81.5043 111.851C81.9443 111.818 83.0773 111.664 83.3523 111.554C83.4513 111.554 83.4953 111.587 83.4953 111.664C83.4953 111.664 83.4513 112.115 83.4513 112.819V114.216C83.4513 114.436 83.5393 114.458 83.6273 114.392ZM92.6435 117.813V113.314C92.6435 112.863 92.6105 112.533 92.5005 112.434C92.2475 112.225 91.8405 112.214 91.3895 112.214C91.3235 112.148 91.3235 111.939 91.3455 111.851C91.7855 111.818 93.0945 111.664 93.5015 111.554C93.6005 111.554 93.6445 111.587 93.6445 111.664C93.6445 111.664 93.6005 112.104 93.6005 112.819V117.813C93.6005 118.352 93.6445 118.55 93.8205 118.66C93.9415 118.737 95.3935 118.836 95.6685 118.847C95.7345 118.913 95.7345 119.188 95.6685 119.254C95.1955 119.243 94.1175 119.232 93.1275 119.232C92.0935 119.232 90.9495 119.243 90.4875 119.254C90.4215 119.188 90.4215 118.913 90.4875 118.847C90.7735 118.836 92.3355 118.748 92.4565 118.66C92.6105 118.539 92.6435 118.341 92.6435 117.813ZM99.6026 115.976L102.617 115.932C102.771 115.932 102.837 115.756 102.837 115.646C102.837 114.59 101.957 114.282 101.429 114.282C100.725 114.282 99.8556 114.656 99.6026 115.976ZM103.695 118.033C103.86 118.044 103.915 118.154 103.948 118.275C103.398 118.913 102.485 119.342 101.451 119.342C100.483 119.342 99.6356 119.056 99.1736 118.561C98.7226 118.099 98.4916 117.428 98.4916 116.746C98.4916 114.887 99.9326 113.842 101.451 113.842C103.321 113.842 103.937 115.074 103.937 116.108C103.937 116.24 103.827 116.427 103.673 116.427H99.5476C99.5476 117.153 99.6796 117.494 99.9546 117.912C100.406 118.55 101.066 118.792 101.781 118.792C102.606 118.792 103.178 118.506 103.695 118.033Z" fill="#009C0A"/>
<path d="M414.232 113.512V115.91C414.353 115.943 415.035 115.976 415.343 115.976C416.531 115.976 416.96 115.503 416.96 114.37C416.96 113.039 416.223 112.863 415.431 112.863C414.551 112.863 414.232 113.127 414.232 113.512ZM413.209 113.831C413.209 112.962 413.022 112.907 412.252 112.874C412.186 112.808 412.186 112.533 412.252 112.467C412.758 112.478 413.286 112.489 413.759 112.489C414.199 112.489 415.2 112.423 415.519 112.423C417.675 112.423 418.071 113.567 418.071 114.183C418.071 115.129 417.62 116.394 415.398 116.394C414.969 116.394 414.474 116.328 414.232 116.251V117.89C414.232 118.759 414.716 118.803 415.574 118.847C415.64 118.913 415.64 119.188 415.574 119.254C415.024 119.243 414.199 119.232 413.77 119.232C413.253 119.232 412.681 119.243 412.142 119.254C412.076 119.188 412.076 118.913 412.142 118.847C412.912 118.814 413.209 118.759 413.209 117.89V113.831ZM423.05 114.766C423.05 115.129 423.061 115.228 423.16 115.118C423.897 114.348 424.447 113.842 425.778 113.842C426.273 113.842 426.405 114.183 426.405 114.403C426.405 114.7 426.174 115.008 425.888 115.008C425.668 115.008 425.503 114.843 425.382 114.711C425.305 114.623 425.052 114.491 424.898 114.491C424.469 114.491 423.93 114.942 423.314 115.624C423.149 115.811 423.05 116.042 423.05 116.328V117.846C423.05 118.385 423.094 118.583 423.292 118.693C423.424 118.759 424.59 118.836 424.975 118.847C425.041 118.913 425.041 119.188 424.975 119.254C424.502 119.243 423.16 119.232 422.709 119.232C422.269 119.232 420.894 119.243 420.432 119.254C420.366 119.188 420.366 118.913 420.432 118.847C420.883 118.825 421.774 118.77 421.884 118.693C422.038 118.583 422.093 118.374 422.093 117.846V115.184C422.093 114.821 422.06 114.678 421.917 114.59C421.807 114.524 421.004 114.436 420.751 114.436C420.729 114.37 420.707 114.194 420.729 114.128C421.488 114.029 422.346 113.897 422.83 113.809C422.918 113.809 422.94 113.842 422.962 113.897C423.017 114.007 423.05 114.172 423.05 114.766ZM429.844 115.976L432.858 115.932C433.012 115.932 433.078 115.756 433.078 115.646C433.078 114.59 432.198 114.282 431.67 114.282C430.966 114.282 430.097 114.656 429.844 115.976ZM433.936 118.033C434.101 118.044 434.156 118.154 434.189 118.275C433.639 118.913 432.726 119.342 431.692 119.342C430.724 119.342 429.877 119.056 429.415 118.561C428.964 118.099 428.733 117.428 428.733 116.746C428.733 114.887 430.174 113.842 431.692 113.842C433.562 113.842 434.178 115.074 434.178 116.108C434.178 116.24 434.068 116.427 433.914 116.427H429.789C429.789 117.153 429.921 117.494 430.196 117.912C430.647 118.55 431.307 118.792 432.022 118.792C432.847 118.792 433.419 118.506 433.936 118.033ZM440.873 117.714V115.382C440.873 114.997 440.84 114.92 440.664 114.722C440.422 114.436 439.839 114.293 439.377 114.293C439.124 114.293 438.442 114.326 438.035 114.898C437.837 115.151 437.661 115.646 437.661 116.526C437.661 118.055 438.618 118.781 439.322 118.781C439.652 118.781 440.224 118.583 440.675 118.187C440.851 118.033 440.873 117.945 440.873 117.714ZM440.741 118.616C440.136 119.111 439.487 119.353 438.981 119.353C437.584 119.353 436.671 118.253 436.671 116.746C436.671 115.833 437.001 115.107 437.562 114.579C438.09 114.117 438.651 113.853 439.509 113.853C439.938 113.853 440.719 114.051 440.763 114.051C440.851 114.051 440.873 114.029 440.873 113.941V113.083C440.873 112.269 440.741 112.214 439.949 112.181C439.883 112.115 439.861 111.939 439.883 111.851C440.323 111.818 441.456 111.664 441.731 111.554C441.83 111.554 441.874 111.587 441.874 111.664C441.874 111.664 441.83 112.104 441.83 112.819V117.802C441.83 118.341 441.918 118.506 442.743 118.605C442.809 118.671 442.809 118.836 442.743 118.902C441.918 118.968 441.456 119.144 441.214 119.342C441.126 119.364 441.093 119.375 441.005 119.342C441.005 119.342 440.884 118.924 440.884 118.627C440.884 118.539 440.796 118.572 440.741 118.616ZM447.161 112.082C447.161 111.774 447.502 111.477 447.799 111.477C448.129 111.477 448.393 111.829 448.393 112.137C448.393 112.401 448.096 112.742 447.755 112.742C447.458 112.742 447.161 112.412 447.161 112.082ZM448.327 117.758C448.327 118.286 448.36 118.495 448.525 118.605C448.646 118.693 449.757 118.825 450.351 118.847C450.417 118.913 450.417 119.188 450.351 119.254C449.878 119.243 448.327 119.232 447.865 119.232C447.37 119.232 445.698 119.243 445.236 119.254C445.17 119.188 445.17 118.913 445.236 118.847C445.775 118.825 447.051 118.693 447.172 118.605C447.326 118.484 447.37 118.275 447.37 117.758V115.228C447.37 114.942 447.348 114.799 447.249 114.667C447.15 114.546 446.754 114.524 445.709 114.502C445.665 114.414 445.654 114.238 445.687 114.139C446.16 114.117 447.095 114.029 447.601 113.941C447.898 113.886 448.195 113.809 448.327 113.809C448.393 113.809 448.481 113.886 448.481 113.952C448.481 114.216 448.327 114.403 448.327 115.14V117.758ZM458.652 118.044C457.662 119.166 456.738 119.342 455.957 119.342C454.142 119.342 453.119 118.154 453.119 116.669C453.119 115.03 454.417 113.842 455.968 113.842C456.771 113.842 457.585 114.106 458.058 114.491C458.3 114.7 458.443 114.964 458.443 115.195C458.443 115.613 458.256 115.822 457.926 115.822C457.662 115.822 457.42 115.624 457.376 115.294C457.299 114.733 456.672 114.293 455.902 114.293C454.78 114.293 454.12 115.118 454.12 116.405C454.12 117.736 455 118.748 456.232 118.748C456.793 118.748 457.64 118.484 458.333 117.769C458.454 117.78 458.608 117.934 458.652 118.044ZM461.398 114.392H462.487C462.487 113.171 462.454 112.698 462.454 112.566C462.454 112.456 462.729 112.434 462.916 112.357C463.081 112.291 463.323 112.17 463.4 112.17C463.455 112.17 463.488 112.192 463.488 112.258C463.488 112.258 463.444 112.698 463.444 113.413V114.392H465.864C465.919 114.392 465.952 114.414 465.952 114.458V114.733C465.952 114.832 465.798 114.876 465.688 114.876H463.444V117.175C463.444 118.473 464.005 118.693 464.566 118.693C465.039 118.693 465.655 118.451 466.26 118.198C466.37 118.209 466.436 118.396 466.458 118.506C465.567 119.001 464.819 119.342 464.181 119.342C463.213 119.342 462.487 118.935 462.487 117.703V114.876H461.255C461.211 114.876 461.2 114.865 461.2 114.81V114.612C461.2 114.524 461.244 114.392 461.398 114.392ZM471.569 112.082C471.569 111.774 471.91 111.477 472.207 111.477C472.537 111.477 472.801 111.829 472.801 112.137C472.801 112.401 472.504 112.742 472.163 112.742C471.866 112.742 471.569 112.412 471.569 112.082ZM472.735 117.758C472.735 118.286 472.768 118.495 472.933 118.605C473.054 118.693 474.165 118.825 474.759 118.847C474.825 118.913 474.825 119.188 474.759 119.254C474.286 119.243 472.735 119.232 472.273 119.232C471.778 119.232 470.106 119.243 469.644 119.254C469.578 119.188 469.578 118.913 469.644 118.847C470.183 118.825 471.459 118.693 471.58 118.605C471.734 118.484 471.778 118.275 471.778 117.758V115.228C471.778 114.942 471.756 114.799 471.657 114.667C471.558 114.546 471.162 114.524 470.117 114.502C470.073 114.414 470.062 114.238 470.095 114.139C470.568 114.117 471.503 114.029 472.009 113.941C472.306 113.886 472.603 113.809 472.735 113.809C472.801 113.809 472.889 113.886 472.889 113.952C472.889 114.216 472.735 114.403 472.735 115.14V117.758ZM479.156 114.766C478.98 114.887 478.782 115.03 478.782 115.283V118.451C479.002 118.726 479.805 118.902 480.223 118.902C481.51 118.902 482.005 117.868 482.005 116.471C482.005 115.283 481.136 114.348 480.311 114.348C479.783 114.348 479.497 114.535 479.156 114.766ZM478.958 114.392C479.398 114.062 479.871 113.842 480.575 113.842C481.752 113.842 483.061 114.755 483.061 116.251C483.061 118.198 481.686 119.342 480.311 119.342C479.838 119.342 479.068 119.243 478.727 119.034C478.452 118.869 478.386 118.88 478.177 119.1C478.034 119.254 477.902 119.342 477.803 119.408C477.693 119.408 477.627 119.32 477.572 119.232C477.737 119.012 477.825 118.737 477.825 118.121V113.083C477.825 112.225 477.682 112.214 476.901 112.181C476.835 112.115 476.813 111.939 476.835 111.851C477.275 111.818 478.408 111.664 478.683 111.554C478.782 111.554 478.826 111.587 478.826 111.664C478.826 111.664 478.782 112.115 478.782 112.819V114.216C478.782 114.436 478.87 114.458 478.958 114.392ZM487.974 117.813V113.314C487.974 112.863 487.941 112.533 487.831 112.434C487.578 112.225 487.171 112.214 486.72 112.214C486.654 112.148 486.654 111.939 486.676 111.851C487.116 111.818 488.425 111.664 488.832 111.554C488.931 111.554 488.975 111.587 488.975 111.664C488.975 111.664 488.931 112.104 488.931 112.819V117.813C488.931 118.352 488.975 118.55 489.151 118.66C489.272 118.737 490.724 118.836 490.999 118.847C491.065 118.913 491.065 119.188 490.999 119.254C490.526 119.243 489.448 119.232 488.458 119.232C487.424 119.232 486.28 119.243 485.818 119.254C485.752 119.188 485.752 118.913 485.818 118.847C486.104 118.836 487.666 118.748 487.787 118.66C487.941 118.539 487.974 118.341 487.974 117.813ZM494.933 115.976L497.947 115.932C498.101 115.932 498.167 115.756 498.167 115.646C498.167 114.59 497.287 114.282 496.759 114.282C496.055 114.282 495.186 114.656 494.933 115.976ZM499.025 118.033C499.19 118.044 499.245 118.154 499.278 118.275C498.728 118.913 497.815 119.342 496.781 119.342C495.813 119.342 494.966 119.056 494.504 118.561C494.053 118.099 493.822 117.428 493.822 116.746C493.822 114.887 495.263 113.842 496.781 113.842C498.651 113.842 499.267 115.074 499.267 116.108C499.267 116.24 499.157 116.427 499.003 116.427H494.878C494.878 117.153 495.01 117.494 495.285 117.912C495.736 118.55 496.396 118.792 497.111 118.792C497.936 118.792 498.508 118.506 499.025 118.033Z" fill="#009C0A"/>
<path d="M223.626 1.16588C223.758 1.71588 223.824 2.00188 223.868 2.50788C223.747 2.58488 223.582 2.57388 223.428 2.57388C223.164 1.88088 222.735 1.28688 221.437 1.28688C220.656 1.28688 219.919 1.74888 219.919 2.51888C219.919 3.39888 221.228 3.79488 222.075 3.88288C223.34 4.01488 224.286 4.57588 224.286 5.82988C224.286 6.56688 223.791 7.13888 223.032 7.51288C222.57 7.74388 221.965 7.86488 221.36 7.86488C220.172 7.86488 219.776 7.62288 218.94 7.62288C218.786 7.10588 218.731 6.83088 218.676 6.02788C218.797 5.97288 218.951 5.95088 219.116 5.99488C219.413 7.03988 220.227 7.44688 221.47 7.44688C222.537 7.44688 223.186 7.03988 223.186 6.19288C223.186 5.08188 222.449 4.79588 221.36 4.68588C220.161 4.56488 218.995 3.90488 218.995 2.79388C218.995 1.39688 220.205 0.879883 221.558 0.879883C222.856 0.879883 222.856 1.07788 223.626 1.16588ZM228.562 3.77288C228.419 3.95988 228.287 4.21288 228.287 4.46588V6.20388C228.375 6.84188 229.178 7.40288 229.695 7.40288C230.795 7.40288 231.466 6.58888 231.466 5.19188C231.466 3.80588 231.037 2.92588 229.838 2.92588C229.343 2.92588 228.87 3.34388 228.562 3.77288ZM228.287 3.34388C228.287 3.43188 228.342 3.43188 228.386 3.38788C228.859 2.77188 229.365 2.36488 230.212 2.36488C231.73 2.36488 232.522 3.36588 232.522 4.86188C232.522 5.85188 232.17 6.62188 231.598 7.18288C231.092 7.65588 230.454 7.86488 229.772 7.86488C229.123 7.86488 228.639 7.61188 228.287 7.22688V8.92088C228.287 9.83388 228.408 9.87788 229.409 9.92188C229.475 9.98788 229.475 10.2629 229.409 10.3289C228.936 10.3179 228.43 10.3069 227.814 10.3069C227.264 10.3069 226.89 10.3179 226.428 10.3289C226.362 10.2629 226.362 9.98788 226.428 9.92188C227.099 9.88888 227.33 9.83388 227.33 8.92088V3.86088C227.33 3.14588 227.088 3.09088 226.428 3.02488C226.406 2.94788 226.373 2.76088 226.395 2.68388C227.242 2.57388 227.737 2.45288 228.078 2.32088C228.177 2.32088 228.199 2.36488 228.221 2.41988C228.276 2.55188 228.287 2.98088 228.287 3.34388ZM236.247 4.49888L239.261 4.45488C239.415 4.45488 239.481 4.27888 239.481 4.16888C239.481 3.11288 238.601 2.80488 238.073 2.80488C237.369 2.80488 236.5 3.17888 236.247 4.49888ZM240.339 6.55588C240.504 6.56688 240.559 6.67688 240.592 6.79788C240.042 7.43588 239.129 7.86488 238.095 7.86488C237.127 7.86488 236.28 7.57888 235.818 7.08388C235.367 6.62188 235.136 5.95088 235.136 5.26888C235.136 3.40988 236.577 2.36488 238.095 2.36488C239.965 2.36488 240.581 3.59688 240.581 4.63088C240.581 4.76288 240.471 4.94988 240.317 4.94988H236.192C236.192 5.67588 236.324 6.01688 236.599 6.43488C237.05 7.07288 237.71 7.31488 238.425 7.31488C239.25 7.31488 239.822 7.02888 240.339 6.55588ZM248.783 6.56688C247.793 7.68888 246.869 7.86488 246.088 7.86488C244.273 7.86488 243.25 6.67688 243.25 5.19188C243.25 3.55288 244.548 2.36488 246.099 2.36488C246.902 2.36488 247.716 2.62888 248.189 3.01388C248.431 3.22288 248.574 3.48688 248.574 3.71788C248.574 4.13588 248.387 4.34488 248.057 4.34488C247.793 4.34488 247.551 4.14688 247.507 3.81688C247.43 3.25588 246.803 2.81588 246.033 2.81588C244.911 2.81588 244.251 3.64088 244.251 4.92788C244.251 6.25888 245.131 7.27088 246.363 7.27088C246.924 7.27088 247.771 7.00688 248.464 6.29188C248.585 6.30288 248.739 6.45688 248.783 6.56688ZM253.564 0.604882C253.564 0.296882 253.905 -0.00011766 254.202 -0.00011766C254.532 -0.00011766 254.796 0.351882 254.796 0.659882C254.796 0.923882 254.499 1.26488 254.158 1.26488C253.861 1.26488 253.564 0.934883 253.564 0.604882ZM254.73 6.28088C254.73 6.80888 254.763 7.01788 254.928 7.12788C255.049 7.21588 256.16 7.34788 256.754 7.36988C256.82 7.43588 256.82 7.71088 256.754 7.77688C256.281 7.76588 254.73 7.75488 254.268 7.75488C253.773 7.75488 252.101 7.76588 251.639 7.77688C251.573 7.71088 251.573 7.43588 251.639 7.36988C252.178 7.34788 253.454 7.21588 253.575 7.12788C253.729 7.00688 253.773 6.79788 253.773 6.28088V3.75088C253.773 3.46488 253.751 3.32188 253.652 3.18988C253.553 3.06888 253.157 3.04688 252.112 3.02488C252.068 2.93688 252.057 2.76088 252.09 2.66188C252.563 2.63988 253.498 2.55188 254.004 2.46388C254.301 2.40888 254.598 2.33188 254.73 2.33188C254.796 2.33188 254.884 2.40888 254.884 2.47488C254.884 2.73888 254.73 2.92588 254.73 3.66288V6.28088ZM261.876 6.36888C261.876 6.89688 261.909 7.10588 262.096 7.21588C262.228 7.29288 262.899 7.32588 264.065 7.36988C264.131 7.43588 264.131 7.71088 264.065 7.77688C263.592 7.76588 262.437 7.75488 261.403 7.75488C260.633 7.75488 259.907 7.76588 259.445 7.77688C259.379 7.71088 259.379 7.43588 259.445 7.36988C260.281 7.34788 260.622 7.30388 260.732 7.21588C260.886 7.10588 260.919 6.89688 260.919 6.36888V3.39888H259.731C259.687 3.39888 259.665 3.38788 259.665 3.33288V3.13488C259.665 3.04688 259.731 2.91488 259.929 2.91488H260.919V2.33188C260.919 0.516882 262.305 0.0768827 263.295 0.0768827C263.823 0.0768827 264.351 0.219882 264.78 0.494883C265 0.637883 265.154 0.923882 265.154 1.14388C265.154 1.47388 264.879 1.63888 264.67 1.63888C264.417 1.63888 264.208 1.57288 264.12 1.33088C263.889 0.758882 263.647 0.494883 263.185 0.494883C262.822 0.494883 261.876 0.747883 261.876 2.14488V2.91488H264.065C264.12 2.91488 264.153 2.93688 264.153 2.98088V3.25588C264.153 3.35488 263.988 3.39888 263.889 3.39888H261.876V6.36888ZM269.836 0.604882C269.836 0.296882 270.177 -0.00011766 270.474 -0.00011766C270.804 -0.00011766 271.068 0.351882 271.068 0.659882C271.068 0.923882 270.771 1.26488 270.43 1.26488C270.133 1.26488 269.836 0.934883 269.836 0.604882ZM271.002 6.28088C271.002 6.80888 271.035 7.01788 271.2 7.12788C271.321 7.21588 272.432 7.34788 273.026 7.36988C273.092 7.43588 273.092 7.71088 273.026 7.77688C272.553 7.76588 271.002 7.75488 270.54 7.75488C270.045 7.75488 268.373 7.76588 267.911 7.77688C267.845 7.71088 267.845 7.43588 267.911 7.36988C268.45 7.34788 269.726 7.21588 269.847 7.12788C270.001 7.00688 270.045 6.79788 270.045 6.28088V3.75088C270.045 3.46488 270.023 3.32188 269.924 3.18988C269.825 3.06888 269.429 3.04688 268.384 3.02488C268.34 2.93688 268.329 2.76088 268.362 2.66188C268.835 2.63988 269.77 2.55188 270.276 2.46388C270.573 2.40888 270.87 2.33188 271.002 2.33188C271.068 2.33188 271.156 2.40888 271.156 2.47488C271.156 2.73888 271.002 2.92588 271.002 3.66288V6.28088ZM281.327 6.56688C280.337 7.68888 279.413 7.86488 278.632 7.86488C276.817 7.86488 275.794 6.67688 275.794 5.19188C275.794 3.55288 277.092 2.36488 278.643 2.36488C279.446 2.36488 280.26 2.62888 280.733 3.01388C280.975 3.22288 281.118 3.48688 281.118 3.71788C281.118 4.13588 280.931 4.34488 280.601 4.34488C280.337 4.34488 280.095 4.14688 280.051 3.81688C279.974 3.25588 279.347 2.81588 278.577 2.81588C277.455 2.81588 276.795 3.64088 276.795 4.92788C276.795 6.25888 277.675 7.27088 278.907 7.27088C279.468 7.27088 280.315 7.00688 281.008 6.29188C281.129 6.30288 281.283 6.45688 281.327 6.56688Z" fill="#E700F7"/>
<path d="M235.028 248.397C234.962 248.331 234.962 248.056 235.028 247.99C235.479 248.001 235.974 248.012 236.227 248.012C236.48 248.012 236.854 248.001 237.195 247.99C237.261 248.056 237.261 248.331 237.195 248.397C236.557 248.474 236.359 248.826 236.161 249.31L233.994 254.645C233.928 254.799 233.807 254.876 233.686 254.876C233.576 254.876 233.389 254.81 233.323 254.645L231.145 249.288C230.837 248.529 230.793 248.463 230.276 248.397C230.21 248.331 230.199 248.056 230.265 247.99C230.606 248.001 230.991 248.012 231.409 248.012C231.838 248.012 232.322 248.001 232.74 247.99C232.806 248.056 232.806 248.331 232.74 248.397C231.992 248.474 231.926 248.562 232.179 249.178L233.928 253.424H233.983L235.611 249.233C235.831 248.672 235.842 248.452 235.028 248.397ZM242.9 252.005L241.58 252.258C240.645 252.445 240.139 252.907 240.139 253.523C240.139 253.897 240.414 254.37 241.151 254.37C241.558 254.37 242.229 254.062 242.603 253.82C242.713 253.743 242.812 253.655 242.823 253.479L242.9 252.005ZM242.823 254.15H242.79L242.482 254.359C241.833 254.766 241.492 254.865 240.821 254.865C239.809 254.865 239.05 254.513 239.05 253.578C239.05 252.764 239.809 252.126 241.382 251.851L242.812 251.609C242.845 251.598 242.922 251.543 242.922 251.455C242.922 250.113 242.317 249.805 241.723 249.805C241.184 249.805 240.513 249.937 240.513 250.322C240.513 250.454 240.524 250.531 240.535 250.564C240.557 250.608 240.579 250.707 240.579 250.795C240.579 250.949 240.315 251.147 239.974 251.147C239.688 251.147 239.479 251.015 239.479 250.718C239.479 250.058 240.678 249.365 241.833 249.365C242.867 249.365 243.956 249.706 243.857 251.433L243.78 253.204C243.747 253.754 243.901 254.249 244.451 254.249C244.748 254.249 244.792 254.051 244.88 254.051C244.946 254.051 245.067 254.172 245.067 254.26C245.067 254.392 244.605 254.865 243.769 254.865C243.01 254.865 242.878 254.524 242.823 254.15ZM250.904 251.323C250.904 250.3 250.486 249.772 249.595 249.772C248.825 249.772 248.506 250.179 248.506 251.037C248.506 251.818 248.726 252.665 249.76 252.665C250.31 252.665 250.904 252.467 250.904 251.323ZM248.495 254.865C248.143 255.294 248.033 255.514 248.033 255.888C248.033 256.636 248.957 256.955 249.65 256.955C250.805 256.955 252.18 256.537 252.18 255.745C252.18 255.459 252.048 255.327 251.553 255.052C251.179 254.854 250.596 254.887 249.947 254.887C249.76 254.887 249.419 254.931 249.012 254.931C248.847 254.931 248.627 254.898 248.495 254.865ZM252.433 249.992C252.301 249.992 252.136 249.871 252.092 249.772C252.015 249.662 251.927 249.629 251.839 249.629C251.685 249.629 251.443 249.805 251.355 249.926C251.707 250.289 251.883 250.63 251.883 251.202C251.883 252.401 250.882 253.072 249.694 253.072C249.221 253.072 248.825 252.995 248.528 252.819C248.385 253.028 248.363 253.292 248.363 253.534C248.363 254.062 248.792 254.227 249.166 254.227C249.232 254.227 249.364 254.216 249.562 254.205C249.87 254.172 250.189 254.139 250.42 254.139C250.893 254.139 251.806 254.15 252.301 254.546C252.675 254.843 252.884 255.107 252.884 255.459C252.884 256.647 251.025 257.362 249.276 257.362C248.286 257.362 247.186 257.065 247.186 256.108C247.186 255.635 247.615 255.173 248.275 254.777C247.956 254.623 247.714 254.271 247.714 253.831C247.714 253.413 247.857 252.896 248.198 252.599C247.857 252.269 247.505 251.884 247.505 251.224C247.505 250.091 248.506 249.365 249.705 249.365C250.541 249.365 250.948 249.607 251.091 249.706C251.41 249.288 252.004 249.079 252.323 249.079C252.653 249.079 252.884 249.277 252.884 249.53C252.884 249.772 252.664 249.992 252.433 249.992ZM257.324 254.865C256.235 254.865 255.839 254.128 255.839 253.369V250.74C255.839 250.355 255.795 250.146 255.674 250.025C255.564 249.926 255.289 249.882 255.047 249.86C254.981 249.794 254.981 249.519 255.047 249.453C255.454 249.464 255.993 249.475 256.345 249.475C256.51 249.475 256.697 249.464 256.752 249.453C256.807 249.453 256.84 249.486 256.84 249.519C256.84 249.519 256.796 250.366 256.796 250.696V253.215C256.796 254.194 257.346 254.348 257.676 254.348C257.951 254.348 258.622 254.139 259.26 253.666C259.425 253.556 259.436 253.446 259.436 253.237V250.751C259.436 250.355 259.392 250.135 259.26 250.014C259.161 249.915 258.941 249.882 258.699 249.86C258.633 249.794 258.633 249.519 258.699 249.453C259.106 249.464 259.524 249.475 259.876 249.475C260.041 249.475 260.294 249.464 260.349 249.453C260.404 249.453 260.437 249.486 260.437 249.519C260.437 249.519 260.393 250.366 260.393 250.696V253.325C260.393 253.864 260.525 254.073 261.229 254.128C261.295 254.194 261.295 254.359 261.229 254.425C260.558 254.502 260.019 254.667 259.777 254.865C259.689 254.887 259.656 254.898 259.568 254.865C259.568 254.865 259.447 254.601 259.447 254.106C259.447 254.029 259.37 254.062 259.315 254.095C258.578 254.656 257.753 254.865 257.324 254.865ZM264.723 251.499L267.737 251.455C267.891 251.455 267.957 251.279 267.957 251.169C267.957 250.113 267.077 249.805 266.549 249.805C265.845 249.805 264.976 250.179 264.723 251.499ZM268.815 253.556C268.98 253.567 269.035 253.677 269.068 253.798C268.518 254.436 267.605 254.865 266.571 254.865C265.603 254.865 264.756 254.579 264.294 254.084C263.843 253.622 263.612 252.951 263.612 252.269C263.612 250.41 265.053 249.365 266.571 249.365C268.441 249.365 269.057 250.597 269.057 251.631C269.057 251.763 268.947 251.95 268.793 251.95H264.668C264.668 252.676 264.8 253.017 265.075 253.435C265.526 254.073 266.186 254.315 266.901 254.315C267.726 254.315 268.298 254.029 268.815 253.556Z" fill="#E700F7"/>
<path d="M416.894 254.543C414.694 254.543 413.385 253.025 413.385 251.243C413.385 249.263 414.925 247.558 416.982 247.558C418.203 247.558 418.775 247.976 419.281 248.031C419.369 248.603 419.457 249.109 419.501 249.648C419.391 249.714 419.27 249.747 419.149 249.703C418.896 248.801 418.236 247.976 416.872 247.976C415.629 247.976 414.452 249.109 414.452 251.045C414.452 252.574 415.387 254.092 416.883 254.092C417.807 254.092 418.632 253.751 419.336 252.937C419.446 252.937 419.589 253.047 419.633 253.146C418.962 254.081 417.851 254.543 416.894 254.543ZM423.809 251.474H425.492L424.458 248.636H424.436L423.534 251.331C423.501 251.441 423.567 251.474 423.809 251.474ZM422.731 253.564C422.588 253.993 423.072 254.026 423.49 254.048C423.556 254.114 423.556 254.389 423.49 254.455C423.083 254.444 422.621 254.433 422.192 254.433C421.895 254.433 421.521 254.444 421.213 254.455C421.147 254.389 421.147 254.114 421.213 254.048C421.697 254.015 421.906 253.96 422.159 253.322L424.326 247.767C424.469 247.767 424.854 247.657 425.019 247.558L427.285 253.487C427.483 253.993 427.582 254.015 428.011 254.048C428.077 254.114 428.077 254.389 428.011 254.455C427.681 254.444 427.318 254.433 426.867 254.433C426.438 254.433 425.833 254.444 425.426 254.455C425.36 254.389 425.36 254.114 425.426 254.048C425.954 254.015 426.427 253.949 426.306 253.641L425.657 251.914H423.611C423.347 251.914 423.281 251.936 423.226 252.09L422.731 253.564ZM431.439 254.433C431.439 254.433 430.548 254.444 430.009 254.455C429.943 254.389 429.943 254.114 430.009 254.048C430.779 254.015 430.966 253.96 430.966 253.091V249.032C430.966 248.163 430.779 248.108 430.009 248.075C429.943 248.009 429.943 247.734 430.009 247.668C430.46 247.679 430.911 247.69 431.494 247.69C432.055 247.69 432.506 247.679 432.946 247.668C433.012 247.734 433.012 248.009 432.946 248.075C432.176 248.108 431.989 248.163 431.989 249.032V253.377C431.989 253.696 432.187 253.883 432.506 253.883H433.826C434.849 253.883 435.069 253.443 435.377 251.914C435.509 251.892 435.652 251.914 435.762 251.958C435.729 252.541 435.586 253.927 435.476 254.455C435.476 254.455 434.464 254.433 434.167 254.433H431.439ZM441.522 253.091C441.522 253.938 441.599 254.004 443.205 254.048C443.271 254.114 443.271 254.389 443.205 254.455C442.655 254.444 441.863 254.433 441.016 254.433C440.158 254.433 439.355 254.444 438.816 254.455C438.75 254.389 438.75 254.114 438.816 254.048C440.444 254.004 440.499 253.949 440.499 253.091V249.032C440.499 248.185 440.433 248.13 438.816 248.075C438.75 248.009 438.75 247.723 438.816 247.657C439.366 247.668 440.521 247.69 441.005 247.69C441.511 247.69 442.666 247.668 443.205 247.657C443.271 247.723 443.271 248.009 443.205 248.075C441.577 248.119 441.522 248.185 441.522 249.032V253.091ZM447.91 248.537V250.605H448.944C449.857 250.605 450.396 250.297 450.396 249.406C450.396 248.339 449.703 248.075 449.087 248.075C448.13 248.075 447.91 248.196 447.91 248.537ZM447.91 250.968V253.388C447.91 254.004 448.273 254.048 449.043 254.048C450.715 254.048 450.913 253.465 450.913 252.706C450.913 251.76 450.396 250.968 448.889 250.968H447.91ZM447.437 247.69C447.91 247.69 448.647 247.657 449.032 247.657C451.078 247.657 451.287 248.581 451.287 249.285C451.287 249.857 450.792 250.385 450.242 250.649V250.671C451.199 250.935 451.936 251.507 451.936 252.508C451.936 253.41 451.463 254.455 449.274 254.455C448.295 254.455 447.921 254.433 447.448 254.433C446.887 254.433 446.557 254.444 446.018 254.455C445.952 254.389 445.952 254.114 446.018 254.048C446.788 254.015 446.887 254.004 446.887 253.135V249.032C446.887 248.163 446.788 248.108 446.018 248.075C445.952 248.009 445.952 247.734 446.018 247.668C446.436 247.679 446.876 247.69 447.437 247.69ZM456.937 248.075C456.156 248.075 455.804 248.405 455.804 248.713V251.034H456.552C457.619 251.034 458.51 250.748 458.51 249.439C458.51 248.207 457.608 248.075 456.937 248.075ZM455.804 253.091C455.804 253.96 455.991 254.015 456.761 254.048C456.827 254.114 456.827 254.389 456.761 254.455C456.255 254.444 455.716 254.433 455.298 254.433C454.88 254.433 454.352 254.444 453.868 254.455C453.802 254.389 453.802 254.114 453.868 254.048C454.638 254.015 454.781 253.96 454.781 253.091V249.032C454.781 248.163 454.638 248.108 453.868 248.075C453.802 248.009 453.802 247.734 453.868 247.668C454.341 247.679 454.88 247.69 455.287 247.69C455.705 247.69 456.651 247.624 456.926 247.624C457.619 247.624 458.51 247.624 459.038 248.097C459.434 248.449 459.61 248.9 459.61 249.428C459.61 250.528 458.51 251.067 458.037 251.21L459.533 253.41C459.819 253.861 460.072 254.136 460.501 254.169C460.545 254.257 460.545 254.389 460.512 254.466C460.402 254.521 460.215 254.543 460.05 254.543C459.39 254.543 458.917 254.092 458.598 253.608L457.311 251.793C457.146 251.551 456.728 251.397 455.804 251.397V253.091ZM464.49 251.474H466.173L465.139 248.636H465.117L464.215 251.331C464.182 251.441 464.248 251.474 464.49 251.474ZM463.412 253.564C463.269 253.993 463.753 254.026 464.171 254.048C464.237 254.114 464.237 254.389 464.171 254.455C463.764 254.444 463.302 254.433 462.873 254.433C462.576 254.433 462.202 254.444 461.894 254.455C461.828 254.389 461.828 254.114 461.894 254.048C462.378 254.015 462.587 253.96 462.84 253.322L465.007 247.767C465.15 247.767 465.535 247.657 465.7 247.558L467.966 253.487C468.164 253.993 468.263 254.015 468.692 254.048C468.758 254.114 468.758 254.389 468.692 254.455C468.362 254.444 467.999 254.433 467.548 254.433C467.119 254.433 466.514 254.444 466.107 254.455C466.041 254.389 466.041 254.114 466.107 254.048C466.635 254.015 467.108 253.949 466.987 253.641L466.338 251.914H464.292C464.028 251.914 463.962 251.936 463.907 252.09L463.412 253.564ZM473.99 253.091C473.99 253.96 474.177 254.026 475.497 254.048C475.563 254.114 475.563 254.389 475.497 254.455C474.947 254.444 474.265 254.433 473.484 254.433C472.692 254.433 471.999 254.444 471.46 254.455C471.394 254.389 471.394 254.114 471.46 254.048C472.78 254.015 472.967 253.96 472.967 253.091V249.131C472.967 248.493 472.857 248.097 472.45 248.097H472.065C471.339 248.097 470.723 248.372 470.503 249.208C470.371 249.208 470.239 249.197 470.129 249.153C470.25 248.647 470.36 248.108 470.404 247.635C470.404 247.624 470.426 247.613 470.448 247.613C470.866 247.646 472.274 247.69 473.121 247.69H474.067C474.936 247.69 476.267 247.646 476.641 247.613C476.652 247.613 476.674 247.624 476.674 247.635C476.685 248.108 476.74 248.636 476.817 249.12C476.718 249.164 476.564 249.175 476.443 249.175C476.256 248.372 475.629 248.097 474.804 248.097H474.496C474.1 248.097 473.99 248.493 473.99 249.164V253.091ZM481.642 250.66C482.577 250.66 482.61 250.517 482.643 249.945C482.709 249.879 482.94 249.879 483.006 249.945C482.984 250.253 482.984 250.495 482.984 250.847C482.984 251.21 482.984 251.419 483.006 251.771C482.94 251.837 482.709 251.837 482.643 251.771C482.61 251.298 482.577 251.056 481.642 251.056H480.454V253.553C480.454 253.839 480.608 254.004 480.85 254.004H482.973C483.809 254.004 484.194 253.399 484.414 252.651C484.557 252.618 484.689 252.64 484.799 252.706C484.711 253.234 484.546 253.927 484.392 254.455C484.392 254.455 483.512 254.433 482.984 254.433H479.794C479.794 254.433 479.013 254.444 478.474 254.455C478.408 254.389 478.408 254.114 478.474 254.048C479.244 254.015 479.431 253.96 479.431 253.091V249.032C479.431 248.163 479.244 248.108 478.474 248.075C478.408 248.009 478.408 247.734 478.474 247.668C479.024 247.679 479.783 247.69 479.783 247.69H483.523C483.787 247.69 483.875 247.679 484.062 247.646C484.095 247.646 484.106 247.657 484.106 247.679C484.128 247.767 484.293 248.768 484.348 249.197C484.238 249.241 484.117 249.274 483.985 249.252C483.743 248.526 483.567 248.13 482.742 248.13H480.85C480.586 248.13 480.454 248.339 480.454 248.592V250.66H481.642ZM496.92 254.015L496.623 253.729C497.415 253.399 498.218 253.355 498.713 253.366L493.444 248.108L493.851 247.701L499.109 252.959C499.065 252.497 499.098 251.815 499.45 250.858L499.769 251.177C499.758 251.188 499.604 253.025 500.099 254.202L499.923 254.378C499.406 254.125 498.339 253.927 496.92 254.015Z" fill="black"/>
<path d="M423.116 1.31988C422.236 1.31988 421.18 2.24388 421.18 4.33388C421.18 6.25888 422.258 7.42488 423.435 7.42488C424.535 7.42488 425.338 6.32488 425.338 4.52088C425.338 2.47488 424.381 1.31988 423.116 1.31988ZM426.405 4.31188C426.405 5.32388 426.174 5.95088 425.778 6.54488C425.228 7.35888 424.348 7.86488 423.237 7.86488C421.532 7.86488 420.113 6.65488 420.113 4.52088C420.113 3.35488 420.388 2.72788 420.828 2.10088C421.378 1.31988 422.247 0.879883 423.237 0.879883C425.03 0.879883 426.405 2.17788 426.405 4.31188ZM430.504 2.03488V4.43288C430.625 4.46588 431.307 4.49888 431.615 4.49888C432.803 4.49888 433.232 4.02588 433.232 2.89288C433.232 1.56188 432.495 1.38588 431.703 1.38588C430.823 1.38588 430.504 1.64988 430.504 2.03488ZM429.481 2.35388C429.481 1.48488 429.294 1.42988 428.524 1.39688C428.458 1.33088 428.458 1.05588 428.524 0.989883C429.03 1.00088 429.558 1.01188 430.031 1.01188C430.471 1.01188 431.472 0.945883 431.791 0.945883C433.947 0.945883 434.343 2.08988 434.343 2.70588C434.343 3.65188 433.892 4.91688 431.67 4.91688C431.241 4.91688 430.746 4.85088 430.504 4.77388V6.41288C430.504 7.28188 430.988 7.32588 431.846 7.36988C431.912 7.43588 431.912 7.71088 431.846 7.77688C431.296 7.76588 430.471 7.75488 430.042 7.75488C429.525 7.75488 428.953 7.76588 428.414 7.77688C428.348 7.71088 428.348 7.43588 428.414 7.36988C429.184 7.33688 429.481 7.28188 429.481 6.41288V2.35388ZM440.048 6.41288C440.048 7.28188 440.235 7.34788 441.555 7.36988C441.621 7.43588 441.621 7.71088 441.555 7.77688C441.005 7.76588 440.323 7.75488 439.542 7.75488C438.75 7.75488 438.057 7.76588 437.518 7.77688C437.452 7.71088 437.452 7.43588 437.518 7.36988C438.838 7.33688 439.025 7.28188 439.025 6.41288V2.45288C439.025 1.81488 438.915 1.41888 438.508 1.41888H438.123C437.397 1.41888 436.781 1.69388 436.561 2.52988C436.429 2.52988 436.297 2.51888 436.187 2.47488C436.308 1.96888 436.418 1.42988 436.462 0.956882C436.462 0.945883 436.484 0.934883 436.506 0.934883C436.924 0.967882 438.332 1.01188 439.179 1.01188H440.125C440.994 1.01188 442.325 0.967882 442.699 0.934883C442.71 0.934883 442.732 0.945883 442.732 0.956882C442.743 1.42988 442.798 1.95788 442.875 2.44188C442.776 2.48588 442.622 2.49688 442.501 2.49688C442.314 1.69388 441.687 1.41888 440.862 1.41888H440.554C440.158 1.41888 440.048 1.81488 440.048 2.48588V6.41288ZM448.261 6.41288C448.261 7.25988 448.338 7.32588 449.944 7.36988C450.01 7.43588 450.01 7.71088 449.944 7.77688C449.394 7.76588 448.602 7.75488 447.755 7.75488C446.897 7.75488 446.094 7.76588 445.555 7.77688C445.489 7.71088 445.489 7.43588 445.555 7.36988C447.183 7.32588 447.238 7.27088 447.238 6.41288V2.35388C447.238 1.50688 447.172 1.45188 445.555 1.39688C445.489 1.33088 445.489 1.04488 445.555 0.978882C446.105 0.989883 447.26 1.01188 447.744 1.01188C448.25 1.01188 449.405 0.989883 449.944 0.978882C450.01 1.04488 450.01 1.33088 449.944 1.39688C448.316 1.44088 448.261 1.50688 448.261 2.35388V6.41288ZM457.618 6.47888L457.552 2.06788H457.497L455.671 6.55588C455.638 6.64388 455.605 6.66588 455.539 6.66588C455.473 6.66588 455.44 6.63288 455.407 6.55588L453.889 2.17788H453.812L453.636 6.40188C453.603 7.29288 453.625 7.33688 454.417 7.36988C454.483 7.43588 454.483 7.71088 454.417 7.77688C454.087 7.76588 453.592 7.75488 453.328 7.75488C453.064 7.75488 452.712 7.76588 452.382 7.77688C452.316 7.71088 452.316 7.43588 452.382 7.36988C453.13 7.33688 453.174 7.29288 453.207 6.42388L453.383 2.18888C453.405 1.48488 453.394 1.44088 452.635 1.39688C452.569 1.33088 452.569 1.05588 452.635 0.989883L454.472 1.01188L455.748 4.54288C455.847 4.79588 455.88 4.80688 455.99 4.53188L457.475 1.01188L458.982 0.989883C459.048 1.05588 459.048 1.33088 458.982 1.39688C458.41 1.42988 458.388 1.48488 458.41 2.11188L458.498 6.42388C458.509 7.29288 458.553 7.33688 459.235 7.36988C459.301 7.43588 459.301 7.71088 459.235 7.77688C458.872 7.76588 458.366 7.75488 458.036 7.75488C457.706 7.75488 457.255 7.76588 456.804 7.77688C456.738 7.71088 456.738 7.43588 456.804 7.36988C457.574 7.31488 457.629 7.27088 457.618 6.47888ZM464.533 6.41288C464.533 7.25988 464.61 7.32588 466.216 7.36988C466.282 7.43588 466.282 7.71088 466.216 7.77688C465.666 7.76588 464.874 7.75488 464.027 7.75488C463.169 7.75488 462.366 7.76588 461.827 7.77688C461.761 7.71088 461.761 7.43588 461.827 7.36988C463.455 7.32588 463.51 7.27088 463.51 6.41288V2.35388C463.51 1.50688 463.444 1.45188 461.827 1.39688C461.761 1.33088 461.761 1.04488 461.827 0.978882C462.377 0.989883 463.532 1.01188 464.016 1.01188C464.522 1.01188 465.677 0.989883 466.216 0.978882C466.282 1.04488 466.282 1.33088 466.216 1.39688C464.588 1.44088 464.533 1.50688 464.533 2.35388V6.41288ZM474.616 7.77688C474.616 7.77688 473.516 7.75488 473.219 7.75488H469.215C469.061 7.75488 469.006 7.71088 469.006 7.60088C469.006 7.52388 469.028 7.44688 469.094 7.35888C470.216 5.77488 472.218 2.99188 473.285 1.70488C473.34 1.62788 473.373 1.57288 473.373 1.51788C473.373 1.45188 473.329 1.44088 473.263 1.44088L471.03 1.48488C470.205 1.49588 469.787 1.84788 469.556 2.57388C469.435 2.57388 469.336 2.55188 469.226 2.51888C469.314 2.08988 469.424 1.49588 469.468 0.934883C469.875 0.967882 470.942 1.01188 471.459 1.01188H473.89C474.22 1.01188 474.561 0.989883 474.693 0.989883C474.781 0.989883 474.836 1.03388 474.836 1.11088C474.836 1.22088 474.803 1.29788 474.572 1.58388C473.274 3.16788 470.535 7.00688 470.535 7.00688C470.469 7.09488 470.447 7.16088 470.447 7.21588C470.447 7.31488 470.535 7.33688 470.722 7.33688L472.757 7.29288C473.956 7.27088 474.231 6.69888 474.572 5.97288C474.715 5.97288 474.836 6.00588 474.913 6.02788C474.781 6.56688 474.671 7.19388 474.616 7.77688ZM480.245 3.98188C481.18 3.98188 481.213 3.83888 481.246 3.26688C481.312 3.20088 481.543 3.20088 481.609 3.26688C481.587 3.57488 481.587 3.81688 481.587 4.16888C481.587 4.53188 481.587 4.74088 481.609 5.09288C481.543 5.15888 481.312 5.15888 481.246 5.09288C481.213 4.61988 481.18 4.37788 480.245 4.37788H479.057V6.87488C479.057 7.16088 479.211 7.32588 479.453 7.32588H481.576C482.412 7.32588 482.797 6.72088 483.017 5.97288C483.16 5.93988 483.292 5.96188 483.402 6.02788C483.314 6.55588 483.149 7.24888 482.995 7.77688C482.995 7.77688 482.115 7.75488 481.587 7.75488H478.397C478.397 7.75488 477.616 7.76588 477.077 7.77688C477.011 7.71088 477.011 7.43588 477.077 7.36988C477.847 7.33688 478.034 7.28188 478.034 6.41288V2.35388C478.034 1.48488 477.847 1.42988 477.077 1.39688C477.011 1.33088 477.011 1.05588 477.077 0.989883C477.627 1.00088 478.386 1.01188 478.386 1.01188H482.126C482.39 1.01188 482.478 1.00088 482.665 0.967882C482.698 0.967882 482.709 0.978882 482.709 1.00088C482.731 1.08888 482.896 2.08988 482.951 2.51888C482.841 2.56288 482.72 2.59588 482.588 2.57388C482.346 1.84788 482.17 1.45188 481.345 1.45188H479.453C479.189 1.45188 479.057 1.66088 479.057 1.91388V3.98188H480.245ZM499.399 4.37788L499.102 4.66388C498.772 3.87188 498.739 3.06888 498.75 2.58488L493.492 7.84288L493.085 7.43588L498.343 2.17788C497.87 2.22188 497.199 2.18888 496.242 1.83688L496.55 1.52888C496.561 1.52888 498.398 1.69388 499.575 1.18788L499.762 1.37488C499.509 1.88088 499.311 2.94788 499.399 4.37788Z" fill="black"/>
<path d="M0.564936 251.543L0.861937 251.246C1.19194 252.049 1.22494 252.841 1.22494 253.336L6.48294 248.067L6.88994 248.474L1.62094 253.743C2.09394 253.699 2.76494 253.732 3.72194 254.084L3.41394 254.392C3.40294 254.381 1.56594 254.227 0.388936 254.733L0.212936 254.546C0.454937 254.04 0.652937 252.973 0.564936 251.543ZM18.7001 250.982C19.6351 250.982 19.6681 250.839 19.7011 250.267C19.7671 250.201 19.9981 250.201 20.0641 250.267C20.0421 250.575 20.0421 250.817 20.0421 251.169C20.0421 251.532 20.0421 251.741 20.0641 252.093C19.9981 252.159 19.7671 252.159 19.7011 252.093C19.6681 251.62 19.6351 251.378 18.7001 251.378H17.5121V253.875C17.5121 254.161 17.6661 254.326 17.9081 254.326H20.0311C20.8671 254.326 21.2521 253.721 21.4721 252.973C21.6151 252.94 21.7471 252.962 21.8571 253.028C21.7691 253.556 21.6041 254.249 21.4501 254.777C21.4501 254.777 20.5701 254.755 20.0421 254.755H16.8521C16.8521 254.755 16.0711 254.766 15.5321 254.777C15.4661 254.711 15.4661 254.436 15.5321 254.37C16.3021 254.337 16.4891 254.282 16.4891 253.413V249.354C16.4891 248.485 16.3021 248.43 15.5321 248.397C15.4661 248.331 15.4661 248.056 15.5321 247.99C16.0821 248.001 16.8411 248.012 16.8411 248.012H20.5811C20.8451 248.012 20.9331 248.001 21.1201 247.968C21.1531 247.968 21.1641 247.979 21.1641 248.001C21.1861 248.089 21.3511 249.09 21.4061 249.519C21.2961 249.563 21.1751 249.596 21.0431 249.574C20.8011 248.848 20.6251 248.452 19.8001 248.452H17.9081C17.6441 248.452 17.5121 248.661 17.5121 248.914V250.982H18.7001ZM29.0912 253.666C29.5312 254.282 29.7402 254.337 30.2022 254.37C30.2682 254.436 30.2792 254.711 30.2132 254.777C29.8832 254.766 29.5202 254.755 29.0912 254.755C28.6512 254.755 28.2332 254.766 27.8372 254.777C27.7712 254.711 27.7712 254.436 27.8372 254.37C28.3542 254.348 28.3872 254.271 28.1012 253.842L26.8472 252.027C26.7812 251.95 26.7372 251.917 26.6932 251.917C26.6602 251.917 26.5942 251.972 26.5282 252.06L25.0762 253.974C24.8122 254.326 25.0982 254.348 25.5052 254.37C25.5712 254.436 25.5712 254.711 25.5052 254.777C25.0652 254.766 24.6032 254.755 24.3502 254.755C24.0972 254.755 23.6902 254.766 23.3602 254.777C23.2942 254.711 23.2942 254.436 23.3602 254.37C23.8552 254.326 24.2072 254.249 24.5812 253.765L26.2092 251.719C26.2752 251.642 26.3192 251.543 26.3192 251.477C26.3192 251.367 26.2532 251.279 26.1652 251.158L24.6032 249.035C24.1852 248.474 23.9432 248.43 23.4812 248.397C23.4152 248.331 23.4042 248.056 23.4702 247.99C23.8002 248.001 24.1632 248.012 24.5922 248.012C24.9552 248.012 25.4062 248.001 25.8462 247.99C25.9122 248.056 25.9122 248.331 25.8462 248.397C25.2302 248.43 25.2852 248.485 25.5932 248.903L26.8032 250.619C26.8582 250.696 26.9022 250.729 26.9352 250.729C26.9792 250.729 27.0452 250.707 27.1112 250.608L28.4092 248.837C28.6622 248.485 28.3872 248.419 28.0352 248.397C27.9692 248.331 27.9692 248.056 28.0352 247.99C28.4752 248.001 28.9372 248.012 29.1902 248.012C29.4432 248.012 29.8502 248.001 30.1802 247.99C30.2462 248.056 30.2462 248.331 30.1802 248.397C29.6852 248.441 29.2892 248.573 28.9042 249.046L27.4522 250.839C27.3532 250.96 27.3422 251.048 27.3422 251.147C27.3422 251.224 27.4192 251.367 27.5182 251.499L29.0912 253.666ZM34.0483 249.035V251.433C34.1693 251.466 34.8513 251.499 35.1593 251.499C36.3473 251.499 36.7763 251.026 36.7763 249.893C36.7763 248.562 36.0393 248.386 35.2473 248.386C34.3673 248.386 34.0483 248.65 34.0483 249.035ZM33.0253 249.354C33.0253 248.485 32.8383 248.43 32.0683 248.397C32.0023 248.331 32.0023 248.056 32.0683 247.99C32.5743 248.001 33.1023 248.012 33.5753 248.012C34.0153 248.012 35.0163 247.946 35.3353 247.946C37.4913 247.946 37.8873 249.09 37.8873 249.706C37.8873 250.652 37.4363 251.917 35.2143 251.917C34.7853 251.917 34.2903 251.851 34.0483 251.774V253.413C34.0483 254.282 34.5323 254.326 35.3903 254.37C35.4563 254.436 35.4563 254.711 35.3903 254.777C34.8403 254.766 34.0153 254.755 33.5863 254.755C33.0693 254.755 32.4973 254.766 31.9583 254.777C31.8923 254.711 31.8923 254.436 31.9583 254.37C32.7283 254.337 33.0253 254.282 33.0253 253.413V249.354ZM41.7225 254.755C41.7225 254.755 40.8315 254.766 40.2925 254.777C40.2265 254.711 40.2265 254.436 40.2925 254.37C41.0625 254.337 41.2495 254.282 41.2495 253.413V249.354C41.2495 248.485 41.0625 248.43 40.2925 248.397C40.2265 248.331 40.2265 248.056 40.2925 247.99C40.7435 248.001 41.1945 248.012 41.7775 248.012C42.3385 248.012 42.7895 248.001 43.2295 247.99C43.2955 248.056 43.2955 248.331 43.2295 248.397C42.4595 248.43 42.2725 248.485 42.2725 249.354V253.699C42.2725 254.018 42.4705 254.205 42.7895 254.205H44.1095C45.1325 254.205 45.3525 253.765 45.6605 252.236C45.7925 252.214 45.9355 252.236 46.0455 252.28C46.0125 252.863 45.8695 254.249 45.7595 254.777C45.7595 254.777 44.7475 254.755 44.4505 254.755H41.7225ZM51.0686 248.32C50.1886 248.32 49.1326 249.244 49.1326 251.334C49.1326 253.259 50.2106 254.425 51.3876 254.425C52.4876 254.425 53.2906 253.325 53.2906 251.521C53.2906 249.475 52.3336 248.32 51.0686 248.32ZM54.3576 251.312C54.3576 252.324 54.1266 252.951 53.7306 253.545C53.1806 254.359 52.3006 254.865 51.1896 254.865C49.4846 254.865 48.0656 253.655 48.0656 251.521C48.0656 250.355 48.3406 249.728 48.7806 249.101C49.3306 248.32 50.1996 247.88 51.1896 247.88C52.9826 247.88 54.3576 249.178 54.3576 251.312ZM59.0837 248.397C58.3027 248.397 57.9507 248.727 57.9507 249.035V251.356H58.6987C59.7657 251.356 60.6567 251.07 60.6567 249.761C60.6567 248.529 59.7547 248.397 59.0837 248.397ZM57.9507 253.413C57.9507 254.282 58.1377 254.337 58.9077 254.37C58.9737 254.436 58.9737 254.711 58.9077 254.777C58.4017 254.766 57.8627 254.755 57.4447 254.755C57.0267 254.755 56.4987 254.766 56.0147 254.777C55.9487 254.711 55.9487 254.436 56.0147 254.37C56.7847 254.337 56.9277 254.282 56.9277 253.413V249.354C56.9277 248.485 56.7847 248.43 56.0147 248.397C55.9487 248.331 55.9487 248.056 56.0147 247.99C56.4877 248.001 57.0267 248.012 57.4337 248.012C57.8517 248.012 58.7977 247.946 59.0727 247.946C59.7657 247.946 60.6567 247.946 61.1847 248.419C61.5807 248.771 61.7567 249.222 61.7567 249.75C61.7567 250.85 60.6567 251.389 60.1837 251.532L61.6797 253.732C61.9657 254.183 62.2187 254.458 62.6477 254.491C62.6917 254.579 62.6917 254.711 62.6587 254.788C62.5487 254.843 62.3617 254.865 62.1967 254.865C61.5367 254.865 61.0637 254.414 60.7447 253.93L59.4577 252.115C59.2927 251.873 58.8747 251.719 57.9507 251.719V253.413ZM67.5169 250.982C68.4519 250.982 68.4849 250.839 68.5179 250.267C68.5839 250.201 68.8149 250.201 68.8809 250.267C68.8589 250.575 68.8589 250.817 68.8589 251.169C68.8589 251.532 68.8589 251.741 68.8809 252.093C68.8149 252.159 68.5839 252.159 68.5179 252.093C68.4849 251.62 68.4519 251.378 67.5169 251.378H66.3289V253.875C66.3289 254.161 66.4829 254.326 66.7249 254.326H68.8479C69.6839 254.326 70.0689 253.721 70.2889 252.973C70.4319 252.94 70.5639 252.962 70.6739 253.028C70.5859 253.556 70.4209 254.249 70.2669 254.777C70.2669 254.777 69.3869 254.755 68.8589 254.755H65.6689C65.6689 254.755 64.8879 254.766 64.3489 254.777C64.2829 254.711 64.2829 254.436 64.3489 254.37C65.1189 254.337 65.3059 254.282 65.3059 253.413V249.354C65.3059 248.485 65.1189 248.43 64.3489 248.397C64.2829 248.331 64.2829 248.056 64.3489 247.99C64.8989 248.001 65.6579 248.012 65.6579 248.012H69.3979C69.6619 248.012 69.7499 248.001 69.9369 247.968C69.9699 247.968 69.9809 247.979 69.9809 248.001C70.0029 248.089 70.1679 249.09 70.2229 249.519C70.1129 249.563 69.9919 249.596 69.8599 249.574C69.6179 248.848 69.4419 248.452 68.6169 248.452H66.7249C66.4609 248.452 66.3289 248.661 66.3289 248.914V250.982H67.5169Z" fill="black"/>
<path d="M3.377 1.25062L3.674 1.54762C2.871 1.87762 2.079 1.91062 1.584 1.89962L6.853 7.15762L6.446 7.56462L1.177 2.30662C1.221 2.77962 1.188 3.45062 0.836 4.40762L0.528 4.09962C0.539 4.08862 0.693 2.25162 0.187 1.07462L0.374 0.887617C0.88 1.14062 1.947 1.33862 3.377 1.25062ZM20.3863 6.09062C20.3863 6.93762 20.4633 7.00362 22.0693 7.04762C22.1353 7.11362 22.1353 7.38862 22.0693 7.45462C21.5193 7.44362 20.7273 7.43262 19.8803 7.43262C19.0223 7.43262 18.2193 7.44362 17.6803 7.45462C17.6143 7.38862 17.6143 7.11362 17.6803 7.04762C19.3083 7.00362 19.3633 6.94862 19.3633 6.09062V2.03162C19.3633 1.18462 19.2973 1.12962 17.6803 1.07462C17.6143 1.00862 17.6143 0.722617 17.6803 0.656617C18.2303 0.667617 19.3853 0.689617 19.8693 0.689617C20.3753 0.689617 21.5303 0.667617 22.0693 0.656617C22.1353 0.722617 22.1353 1.00862 22.0693 1.07462C20.4413 1.11862 20.3863 1.18462 20.3863 2.03162V6.09062ZM28.4454 6.09062C28.4454 6.95962 28.6324 7.02562 29.9524 7.04762C30.0184 7.11362 30.0184 7.38862 29.9524 7.45462C29.4024 7.44362 28.7204 7.43262 27.9394 7.43262C27.1474 7.43262 26.4544 7.44362 25.9154 7.45462C25.8494 7.38862 25.8494 7.11362 25.9154 7.04762C27.2354 7.01462 27.4224 6.95962 27.4224 6.09062V2.13062C27.4224 1.49262 27.3124 1.09662 26.9054 1.09662H26.5204C25.7944 1.09662 25.1784 1.37162 24.9584 2.20762C24.8264 2.20762 24.6944 2.19662 24.5844 2.15262C24.7054 1.64662 24.8154 1.10762 24.8594 0.634617C24.8594 0.623617 24.8814 0.612617 24.9034 0.612617C25.3214 0.645617 26.7294 0.689617 27.5764 0.689617H28.5224C29.3914 0.689617 30.7224 0.645617 31.0964 0.612617C31.1074 0.612617 31.1294 0.623617 31.1294 0.634617C31.1404 1.10762 31.1954 1.63562 31.2724 2.11962C31.1734 2.16362 31.0194 2.17462 30.8984 2.17462C30.7114 1.37162 30.0844 1.09662 29.2594 1.09662H28.9514C28.5554 1.09662 28.4454 1.49262 28.4454 2.16362V6.09062ZM36.0975 3.65962C37.0325 3.65962 37.0655 3.51662 37.0985 2.94462C37.1645 2.87862 37.3955 2.87862 37.4615 2.94462C37.4395 3.25262 37.4395 3.49462 37.4395 3.84662C37.4395 4.20962 37.4395 4.41862 37.4615 4.77062C37.3955 4.83662 37.1645 4.83662 37.0985 4.77062C37.0655 4.29762 37.0325 4.05562 36.0975 4.05562H34.9095V6.55262C34.9095 6.83862 35.0635 7.00362 35.3055 7.00362H37.4285C38.2645 7.00362 38.6495 6.39862 38.8695 5.65062C39.0125 5.61762 39.1445 5.63962 39.2545 5.70562C39.1665 6.23362 39.0015 6.92662 38.8475 7.45462C38.8475 7.45462 37.9675 7.43262 37.4395 7.43262H34.2495C34.2495 7.43262 33.4685 7.44362 32.9295 7.45462C32.8635 7.38862 32.8635 7.11362 32.9295 7.04762C33.6995 7.01462 33.8865 6.95962 33.8865 6.09062V2.03162C33.8865 1.16262 33.6995 1.10762 32.9295 1.07462C32.8635 1.00862 32.8635 0.733617 32.9295 0.667617C33.4795 0.678617 34.2385 0.689617 34.2385 0.689617H37.9785C38.2425 0.689617 38.3305 0.678617 38.5175 0.645617C38.5505 0.645617 38.5615 0.656617 38.5615 0.678617C38.5835 0.766617 38.7485 1.76762 38.8035 2.19662C38.6935 2.24062 38.5725 2.27362 38.4405 2.25162C38.1985 1.52562 38.0225 1.12962 37.1975 1.12962H35.3055C35.0415 1.12962 34.9095 1.33862 34.9095 1.59162V3.65962H36.0975ZM43.9367 1.07462C43.1557 1.07462 42.8037 1.40462 42.8037 1.71262V4.03362H43.5517C44.6187 4.03362 45.5097 3.74762 45.5097 2.43862C45.5097 1.20662 44.6077 1.07462 43.9367 1.07462ZM42.8037 6.09062C42.8037 6.95962 42.9907 7.01462 43.7607 7.04762C43.8267 7.11362 43.8267 7.38862 43.7607 7.45462C43.2547 7.44362 42.7157 7.43262 42.2977 7.43262C41.8797 7.43262 41.3517 7.44362 40.8677 7.45462C40.8017 7.38862 40.8017 7.11362 40.8677 7.04762C41.6377 7.01462 41.7807 6.95962 41.7807 6.09062V2.03162C41.7807 1.16262 41.6377 1.10762 40.8677 1.07462C40.8017 1.00862 40.8017 0.733617 40.8677 0.667617C41.3407 0.678617 41.8797 0.689617 42.2867 0.689617C42.7047 0.689617 43.6507 0.623617 43.9257 0.623617C44.6187 0.623617 45.5097 0.623617 46.0377 1.09662C46.4337 1.44862 46.6097 1.89962 46.6097 2.42762C46.6097 3.52762 45.5097 4.06662 45.0367 4.20962L46.5327 6.40962C46.8187 6.86062 47.0717 7.13562 47.5007 7.16862C47.5447 7.25662 47.5447 7.38862 47.5117 7.46562C47.4017 7.52062 47.2147 7.54262 47.0497 7.54262C46.3897 7.54262 45.9167 7.09162 45.5977 6.60762L44.3107 4.79262C44.1457 4.55062 43.7277 4.39662 42.8037 4.39662V6.09062ZM51.4898 4.47362H53.1728L52.1388 1.63562H52.1168L51.2148 4.33062C51.1818 4.44062 51.2478 4.47362 51.4898 4.47362ZM50.4118 6.56362C50.2688 6.99262 50.7528 7.02562 51.1708 7.04762C51.2368 7.11362 51.2368 7.38862 51.1708 7.45462C50.7638 7.44362 50.3018 7.43262 49.8728 7.43262C49.5758 7.43262 49.2018 7.44362 48.8938 7.45462C48.8278 7.38862 48.8278 7.11362 48.8938 7.04762C49.3778 7.01462 49.5868 6.95962 49.8398 6.32162L52.0068 0.766617C52.1498 0.766617 52.5348 0.656617 52.6998 0.557617L54.9658 6.48662C55.1638 6.99262 55.2628 7.01462 55.6918 7.04762C55.7578 7.11362 55.7578 7.38862 55.6918 7.45462C55.3618 7.44362 54.9988 7.43262 54.5478 7.43262C54.1188 7.43262 53.5138 7.44362 53.1068 7.45462C53.0408 7.38862 53.0408 7.11362 53.1068 7.04762C53.6348 7.01462 54.1078 6.94862 53.9868 6.64062L53.3378 4.91362H51.2918C51.0278 4.91362 50.9618 4.93562 50.9068 5.08962L50.4118 6.56362ZM60.9899 6.09062C60.9899 6.95962 61.1769 7.02562 62.4969 7.04762C62.5629 7.11362 62.5629 7.38862 62.4969 7.45462C61.9469 7.44362 61.2649 7.43262 60.4839 7.43262C59.6919 7.43262 58.9989 7.44362 58.4599 7.45462C58.3939 7.38862 58.3939 7.11362 58.4599 7.04762C59.7799 7.01462 59.9669 6.95962 59.9669 6.09062V2.13062C59.9669 1.49262 59.8569 1.09662 59.4499 1.09662H59.0649C58.3389 1.09662 57.7229 1.37162 57.5029 2.20762C57.3709 2.20762 57.2389 2.19662 57.1289 2.15262C57.2499 1.64662 57.3599 1.10762 57.4039 0.634617C57.4039 0.623617 57.4259 0.612617 57.4479 0.612617C57.8659 0.645617 59.2739 0.689617 60.1209 0.689617H61.0669C61.9359 0.689617 63.2669 0.645617 63.6409 0.612617C63.6519 0.612617 63.6739 0.623617 63.6739 0.634617C63.6849 1.10762 63.7399 1.63562 63.8169 2.11962C63.7179 2.16362 63.5639 2.17462 63.4429 2.17462C63.2559 1.37162 62.6289 1.09662 61.8039 1.09662H61.4959C61.0999 1.09662 60.9899 1.49262 60.9899 2.16362V6.09062ZM68.6421 3.65962C69.5771 3.65962 69.6101 3.51662 69.6431 2.94462C69.7091 2.87862 69.9401 2.87862 70.0061 2.94462C69.9841 3.25262 69.9841 3.49462 69.9841 3.84662C69.9841 4.20962 69.9841 4.41862 70.0061 4.77062C69.9401 4.83662 69.7091 4.83662 69.6431 4.77062C69.6101 4.29762 69.5771 4.05562 68.6421 4.05562H67.4541V6.55262C67.4541 6.83862 67.6081 7.00362 67.8501 7.00362H69.9731C70.8091 7.00362 71.1941 6.39862 71.4141 5.65062C71.5571 5.61762 71.6891 5.63962 71.7991 5.70562C71.7111 6.23362 71.5461 6.92662 71.3921 7.45462C71.3921 7.45462 70.5121 7.43262 69.9841 7.43262H66.7941C66.7941 7.43262 66.0131 7.44362 65.4741 7.45462C65.4081 7.38862 65.4081 7.11362 65.4741 7.04762C66.2441 7.01462 66.4311 6.95962 66.4311 6.09062V2.03162C66.4311 1.16262 66.2441 1.10762 65.4741 1.07462C65.4081 1.00862 65.4081 0.733617 65.4741 0.667617C66.0241 0.678617 66.7831 0.689617 66.7831 0.689617H70.5231C70.7871 0.689617 70.8751 0.678617 71.0621 0.645617C71.0951 0.645617 71.1061 0.656617 71.1061 0.678617C71.1281 0.766617 71.2931 1.76762 71.3481 2.19662C71.2381 2.24062 71.1171 2.27362 70.9851 2.25162C70.7431 1.52562 70.5671 1.12962 69.7421 1.12962H67.8501C67.5861 1.12962 67.4541 1.33862 67.4541 1.59162V3.65962H68.6421Z" fill="black"/>
</svg>
